<svg version="1.1" id="Layer_1" xmlns="http://www.w3.org/2000/svg" xmlns:xlink="http://www.w3.org/1999/xlink" x="0px" y="0px"
	 width="100%" viewBox="0 0 714 714" enable-background="new 0 0 714 714" xml:space="preserve">
<path fill="#000000" opacity="1.000000" stroke="none" 
	d="
M372.000000,715.000000 
	C248.000000,715.000000 124.500000,715.000000 1.000000,715.000000 
	C1.000000,477.000000 1.000000,239.000000 1.000000,1.000000 
	C239.000000,1.000000 477.000000,1.000000 715.000000,1.000000 
	C715.000000,239.000000 715.000000,477.000000 715.000000,715.000000 
	C600.833313,715.000000 486.666656,715.000000 372.000000,715.000000 
M439.474487,619.018066 
	C452.132202,607.690613 464.868713,596.449524 477.422974,585.008484 
	C487.696930,575.645630 498.074127,566.361389 507.842896,556.485718 
	C531.444946,532.625610 555.209106,508.893036 577.958679,484.233307 
	C594.317627,466.500732 609.540649,447.669250 624.548462,428.755066 
	C640.361450,408.826111 654.319092,387.509125 665.834167,364.815491 
	C673.245972,350.208588 679.545471,334.986572 685.545227,319.726379 
	C693.469360,299.571747 697.544678,278.412628 698.853577,256.842987 
	C699.402344,247.800598 698.482483,238.651978 697.971252,229.566223 
	C697.088440,213.877289 692.238708,199.211700 685.556946,185.163437 
	C674.853088,162.658783 659.155640,144.218658 639.504700,128.921783 
	C611.177368,106.870918 578.764648,95.131615 543.503845,91.225677 
	C530.962219,89.836403 518.135193,90.830933 505.443390,91.040596 
	C490.649536,91.284988 476.179291,93.773376 461.990234,98.000473 
	C438.412537,105.024559 417.539948,116.611252 399.692963,133.720322 
	C382.874725,149.843185 368.967651,168.212677 356.628174,187.658905 
	C349.421906,177.797348 342.348297,167.841278 334.984772,158.104477 
	C323.604401,143.056213 310.434814,129.790298 294.893219,118.981201 
	C266.317474,99.106956 233.902466,91.637505 199.820480,90.097366 
	C183.844711,89.375427 167.966827,90.862007 152.172440,93.885307 
	C129.601288,98.205795 108.551590,106.071968 88.875214,117.952377 
	C76.280830,125.556755 64.772301,134.610565 54.717854,145.118652 
	C41.570263,158.859406 30.827421,174.490387 23.871435,192.457962 
	C18.244518,206.992523 13.928569,221.775818 13.994352,237.544159 
	C14.026437,245.234802 13.883976,252.928131 14.046770,260.615448 
	C14.133634,264.717285 14.255712,268.907562 15.135852,272.886749 
	C17.869471,285.245667 20.785694,297.571533 23.974239,309.820892 
	C29.884758,332.527283 39.658638,353.770325 51.646526,373.697144 
	C63.976662,394.192902 77.654388,413.965668 91.907806,433.190735 
	C104.789726,450.566010 118.974823,467.007294 133.099594,483.417755 
	C142.819641,494.710724 153.110687,505.557648 163.693695,516.052124 
	C180.798325,533.013855 198.222534,549.660156 215.755020,566.181519 
	C232.720520,582.168640 249.966385,597.858887 267.144562,613.619141 
	C273.583649,619.526794 280.136749,625.312317 286.712097,631.068787 
	C299.226196,642.024231 311.802704,652.908325 324.335785,663.842163 
	C332.522583,670.984253 340.523804,678.350037 348.914520,685.242676 
	C353.033844,688.626526 358.347656,689.634399 362.844879,685.693054 
	C367.789795,681.359375 372.784149,677.082153 377.745483,672.767090 
	C390.561707,661.620544 403.368591,650.463196 416.185150,639.317078 
	C423.776306,632.715271 431.378845,626.126526 439.474487,619.018066 
z"/>
<path fill="#4DA4D8" opacity="1.000000" stroke="none" 
	d="
M439.225403,619.275024 
	C431.378845,626.126526 423.776306,632.715271 416.185150,639.317078 
	C403.368591,650.463196 390.561707,661.620544 377.745483,672.767090 
	C372.784149,677.082153 367.789795,681.359375 362.844879,685.693054 
	C358.347656,689.634399 353.033844,688.626526 348.914520,685.242676 
	C340.523804,678.350037 332.522583,670.984253 324.335785,663.842163 
	C311.802704,652.908325 299.226196,642.024231 286.712097,631.068787 
	C280.136749,625.312317 273.583649,619.526794 267.144562,613.619141 
	C249.966385,597.858887 232.720520,582.168640 215.755020,566.181519 
	C198.222534,549.660156 180.798325,533.013855 163.693695,516.052124 
	C153.110687,505.557648 142.819641,494.710724 133.099594,483.417755 
	C118.974823,467.007294 104.789726,450.566010 91.907806,433.190735 
	C77.654388,413.965668 63.976662,394.192902 51.646526,373.697144 
	C39.658638,353.770325 29.884758,332.527283 23.974239,309.820892 
	C20.785694,297.571533 17.869471,285.245667 15.135852,272.886749 
	C14.255712,268.907562 14.133634,264.717285 14.046770,260.615448 
	C13.883976,252.928131 14.026437,245.234802 13.994352,237.544159 
	C13.928569,221.775818 18.244518,206.992523 23.871435,192.457962 
	C30.827421,174.490387 41.570263,158.859406 54.717854,145.118652 
	C64.772301,134.610565 76.280830,125.556755 88.875214,117.952377 
	C108.551590,106.071968 129.601288,98.205795 152.172440,93.885307 
	C167.966827,90.862007 183.844711,89.375427 199.820480,90.097366 
	C233.902466,91.637505 266.317474,99.106956 294.893219,118.981201 
	C310.434814,129.790298 323.604401,143.056213 334.984772,158.104477 
	C342.348297,167.841278 349.421906,177.797348 356.628174,187.658905 
	C368.967651,168.212677 382.874725,149.843185 399.692963,133.720322 
	C417.539948,116.611252 438.412537,105.024559 461.990234,98.000473 
	C476.179291,93.773376 490.649536,91.284988 505.443390,91.040596 
	C518.135193,90.830933 530.962219,89.836403 543.503845,91.225677 
	C578.764648,95.131615 611.177368,106.870918 639.504700,128.921783 
	C659.155640,144.218658 674.853088,162.658783 685.556946,185.163437 
	C692.238708,199.211700 697.088440,213.877289 697.971252,229.566223 
	C698.482483,238.651978 699.402344,247.800598 698.853577,256.842987 
	C697.544678,278.412628 693.469360,299.571747 685.545227,319.726379 
	C679.545471,334.986572 673.245972,350.208588 665.834167,364.815491 
	C654.319092,387.509125 640.361450,408.826111 624.548462,428.755066 
	C609.540649,447.669250 594.317627,466.500732 577.958679,484.233307 
	C555.209106,508.893036 531.444946,532.625610 507.842896,556.485718 
	C498.074127,566.361389 487.696930,575.645630 477.422974,585.008484 
	C464.868713,596.449524 452.132202,607.690613 439.225403,619.275024 
M143.078995,246.360565 
	C142.150894,241.740845 139.890442,238.300858 135.205475,236.606125 
	C128.507935,234.183334 121.774323,231.799103 115.272820,228.910645 
	C106.735115,225.117538 98.408180,220.850052 89.538986,216.568573 
	C88.613274,218.509232 87.523712,220.821884 86.410202,223.122955 
	C80.116158,236.129578 77.541534,250.165253 77.401009,264.307495 
	C77.289833,275.495483 79.155891,286.804169 81.100304,297.891541 
	C85.882439,325.160095 96.950920,350.170135 110.640450,373.967743 
	C123.582268,396.465546 138.206940,417.910065 155.115219,437.664581 
	C170.746445,455.927032 185.840012,474.763641 202.705231,491.830719 
	C232.351654,521.831848 263.087677,550.760620 293.534180,579.964600 
	C306.781525,592.671326 320.391113,605.002991 333.937714,617.393982 
	C339.852081,622.803772 346.021454,627.934753 352.066742,633.185181 
	C358.772369,627.590332 365.308990,622.358765 371.599762,616.846619 
	C391.467682,599.437805 411.320312,582.009949 431.026978,564.419373 
	C443.290253,553.472900 455.485779,542.433960 467.335083,531.044617 
	C480.291351,518.591187 493.072540,505.932556 505.460510,492.916534 
	C521.659546,475.896301 537.484497,458.516235 553.281006,441.119049 
	C557.897156,436.035095 561.868347,430.365448 566.503296,424.498169 
	C556.397522,427.348755 547.092957,429.901642 538.672974,423.006744 
	C534.204041,419.347229 529.558838,417.768372 523.837097,417.921722 
	C513.512207,418.198486 503.161957,417.690643 492.846985,418.113190 
	C486.400360,418.377289 482.484161,415.526062 480.055847,410.109924 
	C476.074280,401.229523 471.346558,392.905640 463.909027,386.399780 
	C463.034607,385.634888 462.258698,384.737152 461.315247,384.074554 
	C453.175110,378.357971 450.323822,370.812073 453.403076,361.190796 
	C457.514313,348.344971 465.841156,338.008453 475.130249,328.715240 
	C480.633270,323.209717 486.944305,318.610596 490.869324,311.621582 
	C492.129059,309.378387 493.880554,307.116821 495.970062,305.685760 
	C504.422607,299.896851 513.003967,294.282257 521.710571,288.881927 
	C530.863342,283.204834 540.532043,286.280884 544.266235,293.539917 
	C545.594543,296.121979 547.520142,298.424133 549.345520,300.716705 
	C552.121765,304.203400 555.728333,307.824554 560.214355,305.671753 
	C567.913086,301.977173 575.688049,300.417755 584.173462,299.554474 
	C593.253113,298.630707 598.835632,299.283905 604.051819,307.910980 
	C608.076538,314.567352 613.265076,315.799347 620.049866,312.488892 
	C621.944763,311.564331 624.009705,310.959167 625.823975,309.909058 
	C627.026001,309.213318 628.441467,308.163208 628.849243,306.962128 
	C629.833313,304.062927 630.551514,301.005554 630.817383,297.963104 
	C630.927551,296.702850 629.917175,294.536255 628.883179,294.126190 
	C624.697510,292.466248 620.371826,291.004303 615.968872,290.090820 
	C611.557434,289.175537 608.245789,287.412720 605.741150,283.436707 
	C599.272705,273.168427 599.521240,261.855774 600.117126,250.493073 
	C600.259583,247.776047 601.526550,245.117966 602.117981,243.000046 
	C595.104858,243.000046 588.844360,243.270752 582.616577,242.935684 
	C573.596863,242.450409 569.862549,239.603928 567.013123,231.419312 
	C566.269287,229.282806 565.615356,227.107269 565.060974,224.914032 
	C563.473572,218.633392 560.781860,217.215164 554.821899,219.681854 
	C553.509644,220.224991 552.273987,220.953201 550.897156,221.649780 
	C551.493225,222.900253 552.047791,223.891769 552.453308,224.940918 
	C556.486206,235.373917 562.296387,245.328888 561.009705,257.186340 
	C560.132935,265.266449 560.677063,274.066620 551.306091,278.044769 
	C549.015808,279.017059 545.951477,279.771118 543.835938,278.999695 
	C542.365662,278.463562 540.693726,274.746490 541.221069,273.145172 
	C543.022888,267.674500 539.718750,263.891602 537.900696,259.576813 
	C536.892883,257.184814 535.731567,254.854263 534.798218,252.434769 
	C533.072571,247.961563 531.463562,243.443329 529.699585,238.654922 
	C525.265198,241.029282 521.110901,242.934708 517.326233,245.406067 
	C515.232849,246.773041 512.990417,248.796844 512.145203,251.028320 
	C509.317474,258.493744 505.406433,263.580444 496.720337,265.463409 
	C489.566162,267.014282 483.151459,270.192535 476.996552,263.660431 
	C476.373749,262.999481 474.826477,263.257690 473.735382,262.981995 
	C467.382202,261.376617 465.018677,259.499481 466.085571,253.782852 
	C467.122711,248.225800 467.708405,242.095825 470.535004,237.463959 
	C476.288239,228.036209 483.079742,219.168945 490.132660,210.640701 
	C493.280151,206.834778 495.724152,203.455719 495.012543,198.389038 
	C493.828278,189.957169 497.876617,183.870361 503.861969,178.579300 
	C504.887604,177.672684 505.745483,176.136063 505.929077,174.788086 
	C507.191010,165.522446 509.668854,157.144180 519.661499,153.545670 
	C519.788025,153.500092 519.734802,152.955536 519.830933,151.979141 
	C517.374634,151.979141 514.927490,152.261780 512.565369,151.933060 
	C497.716675,149.866669 483.085541,151.200943 468.382538,153.725464 
	C456.058655,155.841492 444.465332,159.628983 433.320129,165.208450 
	C420.970490,171.390854 410.489868,179.955399 400.875305,189.695679 
	C398.996033,191.599548 398.348877,193.452057 400.412048,196.182709 
	C402.713409,199.228668 405.098572,202.880859 405.566864,206.511688 
	C406.778320,215.904617 411.931641,224.639557 409.235840,234.800461 
	C407.775024,240.306412 406.833160,243.302017 401.111298,245.006836 
	C399.235626,245.565689 397.001587,245.378052 395.399567,246.324356 
	C385.768311,252.013596 376.172974,257.777710 366.769623,263.833557 
	C360.973938,267.565979 355.050476,271.622528 358.971863,280.185181 
	C359.161346,280.598999 358.948669,281.180054 359.007874,281.673065 
	C360.138367,291.091187 361.136719,300.528687 362.490662,309.914825 
	C363.064117,313.890228 361.367279,317.977997 357.599762,318.654938 
	C353.846497,319.329346 351.668488,316.769135 350.017334,313.735992 
	C349.491974,312.770966 349.018341,311.472260 348.161438,311.041290 
	C340.905212,307.391815 333.392090,304.770874 325.037933,305.969025 
	C323.569458,306.179657 322.011505,306.176575 320.549805,305.937134 
	C317.677155,305.466522 314.743683,303.270782 312.028259,306.029785 
	C309.878540,308.214081 307.874908,310.572540 306.046875,313.032410 
	C304.797668,314.713318 304.250580,316.955811 302.886444,318.503876 
	C299.120819,322.777252 295.090973,326.817780 291.088257,331.031860 
	C293.031738,334.053528 294.977905,337.228363 297.073151,340.301605 
	C300.118408,344.768311 303.503906,348.065247 309.849487,347.154480 
	C315.381012,346.360565 320.781799,347.830048 325.600159,351.173706 
	C329.865906,354.133911 334.487091,356.577148 338.827942,359.435944 
	C340.703369,360.671021 342.382843,362.266846 343.952240,363.891174 
	C348.279938,368.370331 346.893158,374.067017 346.953918,379.395569 
	C346.990784,382.624573 346.809296,385.305969 351.479858,385.202637 
	C353.234192,385.163788 355.016144,387.249084 356.818848,388.309296 
	C359.449280,389.856354 361.945984,392.131134 364.787231,392.728790 
	C374.654968,394.804474 384.695038,396.054138 394.576843,398.071960 
	C403.269196,399.846832 410.673096,403.727997 412.931793,413.333832 
	C413.897125,417.439117 414.418121,421.658051 414.981384,425.846832 
	C416.185730,434.803711 411.995209,444.160706 416.964020,452.861328 
	C417.179993,453.239502 416.983673,453.846039 417.001556,454.345459 
	C417.356689,464.263550 410.829315,470.187866 404.225769,475.916229 
	C397.298401,481.925568 389.682831,487.208130 383.232269,493.670898 
	C380.256805,496.651978 377.627136,498.315735 373.571625,499.164642 
	C366.534302,500.637665 358.781433,501.570190 354.769806,508.828888 
	C350.601715,516.370850 346.581757,524.026367 343.058899,531.884094 
	C339.679504,539.421936 336.780609,547.202698 334.161957,555.040894 
	C333.098602,558.223633 332.410645,562.063110 333.170258,565.213501 
	C334.772156,571.857117 337.855927,578.173828 334.156799,585.095215 
	C333.697876,585.953918 334.643738,587.551392 334.911346,588.812317 
	C336.193359,594.852600 333.592743,598.417603 328.221802,597.995728 
	C324.245667,597.683411 317.646362,591.469421 318.139954,587.682617 
	C318.695618,583.419373 316.236877,580.853760 314.331085,577.777771 
	C311.450348,573.128052 308.614471,568.436584 306.054596,563.606506 
	C304.207550,560.121399 303.549438,555.783752 301.104736,552.886292 
	C296.657318,547.615173 294.086700,541.943970 294.019165,535.140381 
	C293.938141,526.975342 294.285797,518.796265 293.924988,510.646393 
	C293.508820,501.245972 292.865814,491.689240 281.714813,487.919006 
	C281.273834,487.769958 280.835999,487.388550 280.562775,486.998932 
	C273.312012,476.659729 264.450531,467.516541 260.631104,454.786682 
	C258.416565,447.405701 255.743500,439.626770 245.396515,437.710571 
	C237.631332,436.272552 233.449844,428.476196 229.612640,421.904022 
	C226.121490,415.924591 221.460037,413.344238 214.785095,414.011230 
	C209.155685,414.573730 205.304092,411.596344 203.646362,406.879883 
	C202.291870,403.026215 201.889328,398.449402 202.448730,394.383606 
	C204.206161,381.610382 208.279922,369.500244 213.885910,357.829742 
	C218.232224,348.781586 224.125793,342.477478 234.801651,341.952484 
	C239.936096,341.699951 245.048721,341.003143 249.909622,340.532867 
	C245.628983,337.046661 241.348740,333.434021 236.931458,329.997528 
	C232.134521,326.265656 227.528534,322.129120 222.270721,319.184113 
	C213.110199,314.053223 203.541031,309.644043 194.072372,305.079132 
	C192.525803,304.333466 190.619400,304.323364 188.873749,304.003448 
	C183.125732,302.950195 177.180664,302.511414 171.670639,300.726959 
	C163.150986,297.967804 158.272278,290.670166 155.236221,283.025757 
	C150.586777,271.318970 147.353394,259.049805 143.078995,246.360565 
z"/>
<path fill="#000000" opacity="1.000000" stroke="none" 
	d="
M143.298981,246.689941 
	C147.353394,259.049805 150.586777,271.318970 155.236221,283.025757 
	C158.272278,290.670166 163.150986,297.967804 171.670639,300.726959 
	C177.180664,302.511414 183.125732,302.950195 188.873749,304.003448 
	C190.619400,304.323364 192.525803,304.333466 194.072372,305.079132 
	C203.541031,309.644043 213.110199,314.053223 222.270721,319.184113 
	C227.528534,322.129120 232.134521,326.265656 236.931458,329.997528 
	C241.348740,333.434021 245.628983,337.046661 249.909622,340.532867 
	C245.048721,341.003143 239.936096,341.699951 234.801651,341.952484 
	C224.125793,342.477478 218.232224,348.781586 213.885910,357.829742 
	C208.279922,369.500244 204.206161,381.610382 202.448730,394.383606 
	C201.889328,398.449402 202.291870,403.026215 203.646362,406.879883 
	C205.304092,411.596344 209.155685,414.573730 214.785095,414.011230 
	C221.460037,413.344238 226.121490,415.924591 229.612640,421.904022 
	C233.449844,428.476196 237.631332,436.272552 245.396515,437.710571 
	C255.743500,439.626770 258.416565,447.405701 260.631104,454.786682 
	C264.450531,467.516541 273.312012,476.659729 280.562775,486.998932 
	C280.835999,487.388550 281.273834,487.769958 281.714813,487.919006 
	C292.865814,491.689240 293.508820,501.245972 293.924988,510.646393 
	C294.285797,518.796265 293.938141,526.975342 294.019165,535.140381 
	C294.086700,541.943970 296.657318,547.615173 301.104736,552.886292 
	C303.549438,555.783752 304.207550,560.121399 306.054596,563.606506 
	C308.614471,568.436584 311.450348,573.128052 314.331085,577.777771 
	C316.236877,580.853760 318.695618,583.419373 318.139954,587.682617 
	C317.646362,591.469421 324.245667,597.683411 328.221802,597.995728 
	C333.592743,598.417603 336.193359,594.852600 334.911346,588.812317 
	C334.643738,587.551392 333.697876,585.953918 334.156799,585.095215 
	C337.855927,578.173828 334.772156,571.857117 333.170258,565.213501 
	C332.410645,562.063110 333.098602,558.223633 334.161957,555.040894 
	C336.780609,547.202698 339.679504,539.421936 343.058899,531.884094 
	C346.581757,524.026367 350.601715,516.370850 354.769806,508.828888 
	C358.781433,501.570190 366.534302,500.637665 373.571625,499.164642 
	C377.627136,498.315735 380.256805,496.651978 383.232269,493.670898 
	C389.682831,487.208130 397.298401,481.925568 404.225769,475.916229 
	C410.829315,470.187866 417.356689,464.263550 417.001556,454.345459 
	C416.983673,453.846039 417.179993,453.239502 416.964020,452.861328 
	C411.995209,444.160706 416.185730,434.803711 414.981384,425.846832 
	C414.418121,421.658051 413.897125,417.439117 412.931793,413.333832 
	C410.673096,403.727997 403.269196,399.846832 394.576843,398.071960 
	C384.695038,396.054138 374.654968,394.804474 364.787231,392.728790 
	C361.945984,392.131134 359.449280,389.856354 356.818848,388.309296 
	C355.016144,387.249084 353.234192,385.163788 351.479858,385.202637 
	C346.809296,385.305969 346.990784,382.624573 346.953918,379.395569 
	C346.893158,374.067017 348.279938,368.370331 343.952240,363.891174 
	C342.382843,362.266846 340.703369,360.671021 338.827942,359.435944 
	C334.487091,356.577148 329.865906,354.133911 325.600159,351.173706 
	C320.781799,347.830048 315.381012,346.360565 309.849487,347.154480 
	C303.503906,348.065247 300.118408,344.768311 297.073151,340.301605 
	C294.977905,337.228363 293.031738,334.053528 291.088257,331.031860 
	C295.090973,326.817780 299.120819,322.777252 302.886444,318.503876 
	C304.250580,316.955811 304.797668,314.713318 306.046875,313.032410 
	C307.874908,310.572540 309.878540,308.214081 312.028259,306.029785 
	C314.743683,303.270782 317.677155,305.466522 320.549805,305.937134 
	C322.011505,306.176575 323.569458,306.179657 325.037933,305.969025 
	C333.392090,304.770874 340.905212,307.391815 348.161438,311.041290 
	C349.018341,311.472260 349.491974,312.770966 350.017334,313.735992 
	C351.668488,316.769135 353.846497,319.329346 357.599762,318.654938 
	C361.367279,317.977997 363.064117,313.890228 362.490662,309.914825 
	C361.136719,300.528687 360.138367,291.091187 359.007874,281.673065 
	C358.948669,281.180054 359.161346,280.598999 358.971863,280.185181 
	C355.050476,271.622528 360.973938,267.565979 366.769623,263.833557 
	C376.172974,257.777710 385.768311,252.013596 395.399567,246.324356 
	C397.001587,245.378052 399.235626,245.565689 401.111298,245.006836 
	C406.833160,243.302017 407.775024,240.306412 409.235840,234.800461 
	C411.931641,224.639557 406.778320,215.904617 405.566864,206.511688 
	C405.098572,202.880859 402.713409,199.228668 400.412048,196.182709 
	C398.348877,193.452057 398.996033,191.599548 400.875305,189.695679 
	C410.489868,179.955399 420.970490,171.390854 433.320129,165.208450 
	C444.465332,159.628983 456.058655,155.841492 468.382538,153.725464 
	C483.085541,151.200943 497.716675,149.866669 512.565369,151.933060 
	C514.927490,152.261780 517.374634,151.979141 519.830933,151.979141 
	C519.734802,152.955536 519.788025,153.500092 519.661499,153.545670 
	C509.668854,157.144180 507.191010,165.522446 505.929077,174.788086 
	C505.745483,176.136063 504.887604,177.672684 503.861969,178.579300 
	C497.876617,183.870361 493.828278,189.957169 495.012543,198.389038 
	C495.724152,203.455719 493.280151,206.834778 490.132660,210.640701 
	C483.079742,219.168945 476.288239,228.036209 470.535004,237.463959 
	C467.708405,242.095825 467.122711,248.225800 466.085571,253.782852 
	C465.018677,259.499481 467.382202,261.376617 473.735382,262.981995 
	C474.826477,263.257690 476.373749,262.999481 476.996552,263.660431 
	C483.151459,270.192535 489.566162,267.014282 496.720337,265.463409 
	C505.406433,263.580444 509.317474,258.493744 512.145203,251.028320 
	C512.990417,248.796844 515.232849,246.773041 517.326233,245.406067 
	C521.110901,242.934708 525.265198,241.029282 529.699585,238.654922 
	C531.463562,243.443329 533.072571,247.961563 534.798218,252.434769 
	C535.731567,254.854263 536.892883,257.184814 537.900696,259.576813 
	C539.718750,263.891602 543.022888,267.674500 541.221069,273.145172 
	C540.693726,274.746490 542.365662,278.463562 543.835938,278.999695 
	C545.951477,279.771118 549.015808,279.017059 551.306091,278.044769 
	C560.677063,274.066620 560.132935,265.266449 561.009705,257.186340 
	C562.296387,245.328888 556.486206,235.373917 552.453308,224.940918 
	C552.047791,223.891769 551.493225,222.900253 550.897156,221.649780 
	C552.273987,220.953201 553.509644,220.224991 554.821899,219.681854 
	C560.781860,217.215164 563.473572,218.633392 565.060974,224.914032 
	C565.615356,227.107269 566.269287,229.282806 567.013123,231.419312 
	C569.862549,239.603928 573.596863,242.450409 582.616577,242.935684 
	C588.844360,243.270752 595.104858,243.000046 602.117981,243.000046 
	C601.526550,245.117966 600.259583,247.776047 600.117126,250.493073 
	C599.521240,261.855774 599.272705,273.168427 605.741150,283.436707 
	C608.245789,287.412720 611.557434,289.175537 615.968872,290.090820 
	C620.371826,291.004303 624.697510,292.466248 628.883179,294.126190 
	C629.917175,294.536255 630.927551,296.702850 630.817383,297.963104 
	C630.551514,301.005554 629.833313,304.062927 628.849243,306.962128 
	C628.441467,308.163208 627.026001,309.213318 625.823975,309.909058 
	C624.009705,310.959167 621.944763,311.564331 620.049866,312.488892 
	C613.265076,315.799347 608.076538,314.567352 604.051819,307.910980 
	C598.835632,299.283905 593.253113,298.630707 584.173462,299.554474 
	C575.688049,300.417755 567.913086,301.977173 560.214355,305.671753 
	C555.728333,307.824554 552.121765,304.203400 549.345520,300.716705 
	C547.520142,298.424133 545.594543,296.121979 544.266235,293.539917 
	C540.532043,286.280884 530.863342,283.204834 521.710571,288.881927 
	C513.003967,294.282257 504.422607,299.896851 495.970062,305.685760 
	C493.880554,307.116821 492.129059,309.378387 490.869324,311.621582 
	C486.944305,318.610596 480.633270,323.209717 475.130249,328.715240 
	C465.841156,338.008453 457.514313,348.344971 453.403076,361.190796 
	C450.323822,370.812073 453.175110,378.357971 461.315247,384.074554 
	C462.258698,384.737152 463.034607,385.634888 463.909027,386.399780 
	C471.346558,392.905640 476.074280,401.229523 480.055847,410.109924 
	C482.484161,415.526062 486.400360,418.377289 492.846985,418.113190 
	C503.161957,417.690643 513.512207,418.198486 523.837097,417.921722 
	C529.558838,417.768372 534.204041,419.347229 538.672974,423.006744 
	C547.092957,429.901642 556.397522,427.348755 566.503296,424.498169 
	C561.868347,430.365448 557.897156,436.035095 553.281006,441.119049 
	C537.484497,458.516235 521.659546,475.896301 505.460510,492.916534 
	C493.072540,505.932556 480.291351,518.591187 467.335083,531.044617 
	C455.485779,542.433960 443.290253,553.472900 431.026978,564.419373 
	C411.320312,582.009949 391.467682,599.437805 371.599762,616.846619 
	C365.308990,622.358765 358.772369,627.590332 352.066742,633.185181 
	C346.021454,627.934753 339.852081,622.803772 333.937714,617.393982 
	C320.391113,605.002991 306.781525,592.671326 293.534180,579.964600 
	C263.087677,550.760620 232.351654,521.831848 202.705231,491.830719 
	C185.840012,474.763641 170.746445,455.927032 155.115219,437.664581 
	C138.206940,417.910065 123.582268,396.465546 110.640450,373.967743 
	C96.950920,350.170135 85.882439,325.160095 81.100304,297.891541 
	C79.155891,286.804169 77.289833,275.495483 77.401009,264.307495 
	C77.541534,250.165253 80.116158,236.129578 86.410202,223.122955 
	C87.523712,220.821884 88.613274,218.509232 89.538986,216.568573 
	C98.408180,220.850052 106.735115,225.117538 115.272820,228.910645 
	C121.774323,231.799103 128.507935,234.183334 135.205475,236.606125 
	C139.890442,238.300858 142.150894,241.740845 143.298981,246.689941 
M465.000061,201.290924 
	C464.782288,206.639099 468.268158,209.390991 472.596649,210.695877 
	C477.391510,212.141342 481.806488,210.273834 484.930176,206.474762 
	C492.004089,197.871399 492.314880,186.768204 487.975677,177.206955 
	C485.882385,172.594528 481.665497,170.319916 476.712280,171.134659 
	C471.976471,171.913635 468.106140,174.646271 468.018951,180.063614 
	C467.922546,186.054001 469.080017,192.140060 465.067719,197.484055 
	C464.588745,198.121948 465.000916,199.428894 465.000061,201.290924 
z"/>
<path fill="#4DA4D8" opacity="1.000000" stroke="none" 
	d="
M465.000061,200.858337 
	C465.000916,199.428894 464.588745,198.121948 465.067719,197.484055 
	C469.080017,192.140060 467.922546,186.054001 468.018951,180.063614 
	C468.106140,174.646271 471.976471,171.913635 476.712280,171.134659 
	C481.665497,170.319916 485.882385,172.594528 487.975677,177.206955 
	C492.314880,186.768204 492.004089,197.871399 484.930176,206.474762 
	C481.806488,210.273834 477.391510,212.141342 472.596649,210.695877 
	C468.268158,209.390991 464.782288,206.639099 465.000061,200.858337 
z"/>
</svg>